<?xml version="1.0" encoding="UTF-8"?> <svg xmlns="http://www.w3.org/2000/svg" width="160" height="49" viewBox="0 0 160 49" fill="none"> <path d="M100.909 48.4964H79.3588C78.3339 48.4964 77.8247 47.2536 78.555 46.5345L100.176 25.2462C100.629 24.7999 100.632 24.0697 100.182 23.6198L78.5181 1.95564C77.7965 1.23396 78.3076 0 79.3282 0H102.246C102.549 0 102.841 0.120695 103.056 0.335534L118.232 15.5117C118.447 15.7266 118.738 15.8473 119.042 15.8473H135.178C135.811 15.8473 136.324 16.3602 136.324 16.9928V30.1671C136.324 30.7998 135.811 31.3126 135.178 31.3126H119.042C118.738 31.3126 118.447 31.4333 118.232 31.6482L101.719 48.1609C101.504 48.3757 101.213 48.4964 100.909 48.4964Z" fill="url(#paint0_linear_322_17435)"></path> <path d="M17.7856 33.3916L15.8755 28.6321H6.10597L4.22721 33.3916H0.407064L9.23723 11.4727H12.619L21.6684 33.3916H17.7856ZM10.9594 16.1696L7.35847 25.4069H14.623L10.9594 16.1696ZM24.8953 33.3916V11.4727H28.4962V33.3916H24.8953ZM47.3513 16.4828H49.6372V31.1684C49.6372 32.9637 49.2927 34.5084 48.6038 35.8027C47.9358 37.1178 46.9651 38.1198 45.6918 38.8087C44.4184 39.5184 42.9154 39.8733 41.1827 39.8733C39.0326 39.8733 37.2269 39.341 35.7657 38.2764C34.3044 37.2326 33.3546 35.7714 32.9162 33.8926H36.3919C36.705 34.8111 37.3 35.5209 38.1767 36.0219C39.0744 36.5229 40.0659 36.7734 41.1514 36.7734C42.6544 36.7734 43.8756 36.3141 44.815 35.3956C45.7544 34.4771 46.2241 33.2246 46.2241 31.6381V30.8866C44.6584 32.2226 42.7901 32.8906 40.6191 32.8906C38.2811 32.8906 36.298 32.0869 34.6697 30.4795C33.0623 28.8513 32.2586 26.8577 32.2586 24.4988C32.2586 22.1399 33.0623 20.1463 34.6697 18.5181C36.298 16.8898 38.2811 16.0757 40.6191 16.0757C43.1032 16.0757 45.1594 16.942 46.7877 18.6747L47.3513 16.4828ZM41.0262 29.6654C41.7568 29.6654 42.4457 29.5401 43.0928 29.2896C43.7399 29.0183 44.2931 28.6634 44.7524 28.225C45.2116 27.7658 45.5665 27.2126 45.817 26.5654C46.0884 25.9183 46.2241 25.2294 46.2241 24.4988C46.2241 22.9958 45.7335 21.7537 44.7524 20.7726C43.7713 19.7915 42.5292 19.3009 41.0262 19.3009C39.5232 19.3009 38.2707 19.8019 37.2687 20.8039C36.2875 21.785 35.797 23.0167 35.797 24.4988C35.797 25.9809 36.2875 27.2126 37.2687 28.1937C38.2707 29.1748 39.5232 29.6654 41.0262 29.6654ZM70.6433 24.9685C70.6433 25.2816 70.6224 25.6678 70.5807 26.1271H56.8657C57.0745 27.4839 57.6381 28.559 58.5566 29.3523C59.496 30.1455 60.6546 30.5422 62.0323 30.5422C62.7003 30.5422 63.3266 30.4482 63.9111 30.2603C64.4956 30.0516 65.007 29.7698 65.4454 29.4149C65.9047 29.0391 66.2804 28.5903 66.5727 28.0685H70.2362C69.5682 29.8637 68.5036 31.2728 67.0423 32.2957C65.5811 33.2977 63.9111 33.7987 62.0323 33.7987C59.5482 33.7987 57.4711 32.9532 55.8011 31.2623C54.152 29.5715 53.3274 27.4631 53.3274 24.9372C53.3274 22.4113 54.152 20.3029 55.8011 18.612C57.4711 16.9211 59.5482 16.0757 62.0323 16.0757C63.7232 16.0757 65.2262 16.4828 66.5413 17.2969C67.8565 18.0902 68.8689 19.1652 69.5787 20.5221C70.2884 21.8581 70.6433 23.3402 70.6433 24.9685ZM62.0323 19.207C60.7381 19.207 59.6317 19.5723 58.7132 20.3029C57.8155 21.0335 57.2206 22.0355 56.9284 23.3089H67.1676C66.9588 22.453 66.6144 21.7224 66.1343 21.117C65.6541 20.4908 65.0592 20.0211 64.3495 19.708C63.6606 19.374 62.8882 19.207 62.0323 19.207ZM83.2892 16.107C85.2515 16.107 86.8067 16.7646 87.9548 18.0797C89.1238 19.3948 89.7083 21.1066 89.7083 23.215V33.3916H86.2326V23.9039C86.2326 22.38 85.8986 21.2214 85.2306 20.4282C84.5835 19.614 83.6232 19.207 82.3498 19.207C81.0347 19.207 79.9492 19.6871 79.0933 20.6474C78.2374 21.6076 77.8095 22.8392 77.8095 24.3422V33.3916H74.3338V16.4828H76.7449L77.4337 18.8312C78.0809 17.9753 78.9054 17.3073 79.9074 16.8272C80.9303 16.3471 82.0576 16.107 83.2892 16.107ZM101.817 30.229H103.728V33.3916H101.16C99.9283 33.3916 98.8637 33.1515 97.966 32.6714C97.0684 32.1913 96.3795 31.5024 95.8994 30.6048C95.4193 29.6863 95.1792 28.6112 95.1792 27.3796V19.4575H92.1419V18.7999L98.0287 12.5374H98.6236V16.4828H103.634V19.4575H98.6549V27.0978C98.6549 28.0998 98.9263 28.8721 99.469 29.4149C100.012 29.9576 100.795 30.229 101.817 30.229Z" fill="white"></path> <path d="M116.289 0.325314L100.849 8.54603C100.03 8.9825 100.043 10.1618 100.872 10.5801L111.071 15.7245C111.231 15.8052 111.407 15.8472 111.587 15.8472H130.305C130.493 15.8472 130.678 15.8011 130.843 15.7128L155.945 2.34769C156.999 1.78701 156.6 0.190918 155.407 0.190918H116.828C116.64 0.190918 116.455 0.237071 116.289 0.325314Z" fill="url(#paint1_linear_322_17435)"></path> <path d="M116.289 46.6434L100.849 38.4227C100.03 37.9863 100.043 36.8069 100.872 36.3887L111.071 31.2443C111.231 31.1636 111.407 31.1215 111.587 31.1215H130.305C130.493 31.1215 130.678 31.1677 130.843 31.2559L155.945 44.6211C156.999 45.1817 156.6 46.7778 155.407 46.7778H116.828C116.64 46.7778 116.455 46.7317 116.289 46.6434Z" fill="url(#paint2_linear_322_17435)"></path> <defs> <linearGradient id="paint0_linear_322_17435" x1="90.5004" y1="26.1575" x2="133.842" y2="26.7303" gradientUnits="userSpaceOnUse"> <stop stop-color="#6015FF"></stop> <stop offset="0.619792" stop-color="#FB1FFF" stop-opacity="0.46"></stop> <stop offset="1" stop-color="#FB1FFF" stop-opacity="0"></stop> </linearGradient> <linearGradient id="paint1_linear_322_17435" x1="149.868" y1="1.06071" x2="121.262" y2="29.5047" gradientUnits="userSpaceOnUse"> <stop stop-color="#6015FF"></stop> <stop offset="1" stop-color="#6232CA" stop-opacity="0"></stop> </linearGradient> <linearGradient id="paint2_linear_322_17435" x1="149.868" y1="45.908" x2="121.262" y2="17.4641" gradientUnits="userSpaceOnUse"> <stop stop-color="#6015FF"></stop> <stop offset="1" stop-color="#6232CA" stop-opacity="0"></stop> </linearGradient> </defs> </svg> 